{
	"asset":{
		"generator":"Khronos glTF Blender I/O v3.5.30",
		"version":"2.0"
	},
	"scene":0,
	"scenes":[
		{
			"name":"Scene",
			"nodes":[
				0,
				1,
				2,
				3,
				4,
				5,
				6,
				7,
				8
			]
		}
	],
	"nodes":[
		{
			"mesh":0,
			"name":"Cube",
			"scale":[
				0.8935854434967041,
				0.8935854434967041,
				0.8295681476593018
			],
			"translation":[
				0,
				-1.3314459323883057,
				0
			]
		},
		{
			"mesh":1,
			"name":"Cube.001",
			"scale":[
				1.315390706062317,
				1,
				0.903126060962677
			]
		},
		{
			"mesh":2,
			"name":"Cube.002",
			"scale":[
				1.315390706062317,
				1,
				0.903126060962677
			],
			"translation":[
				0,
				0,
				-0.030816813930869102
			]
		},
		{
			"mesh":3,
			"name":"\u7acb\u65b9\u4f53",
			"rotation":[
				-0.04196246713399887,
				0,
				0,
				0.9991192817687988
			],
			"scale":[
				0.17207376658916473,
				0.17179276049137115,
				0.09228372573852539
			],
			"translation":[
				0.3555128872394562,
				0.1576399952173233,
				0.6512547731399536
			]
		},
		{
			"mesh":4,
			"name":"\u7acb\u65b9\u4f53.001",
			"scale":[
				0.14982369542121887,
				0.14982369542121887,
				0.10943253338336945
			],
			"translation":[
				-0.0018605589866638184,
				-0.0992221087217331,
				0.718550443649292
			]
		},
		{
			"mesh":5,
			"name":"\u7acb\u65b9\u4f53.002",
			"rotation":[
				-0.04196246713399887,
				0,
				0,
				0.9991192817687988
			],
			"scale":[
				0.08639977872371674,
				0.08639976382255554,
				0.06310714036226273
			],
			"translation":[
				0.4123903214931488,
				0.1952138990163803,
				0.6895569562911987
			]
		},
		{
			"mesh":6,
			"name":"\u7acb\u65b9\u4f53.003",
			"rotation":[
				-0.04196247085928917,
				0,
				0,
				0.9991192817687988
			],
			"scale":[
				0.0870472863316536,
				0.0870472714304924,
				0.06358007341623306
			],
			"translation":[
				-0.3217754364013672,
				0.20393067598342896,
				0.7034454941749573
			]
		},
		{
			"mesh":7,
			"name":"\u7acb\u65b9\u4f53.004",
			"rotation":[
				-0.04196247458457947,
				0,
				0,
				0.9991192817687988
			],
			"scale":[
				0.055503252893686295,
				0.05550325661897659,
				0.040540046989917755
			],
			"translation":[
				-0.0028532184660434723,
				-0.16145306825637817,
				0.7182865142822266
			]
		},
		{
			"mesh":8,
			"name":"\u7acb\u65b9\u4f53.005",
			"rotation":[
				-0.04196247085928917,
				0,
				0,
				0.9991192817687988
			],
			"scale":[
				0.06108035892248154,
				0.06184183806180954,
				0.04421933740377426
			],
			"translation":[
				-0.1338496208190918,
				-0.0313609279692173,
				0.709338903427124
			]
		}
	],
	"materials":[
		{
			"doubleSided":true,
			"name":"Material",
			"pbrMetallicRoughness":{
				"baseColorFactor":[
					0.2079189419746399,
					0.2079189419746399,
					0.2079189419746399,
					1
				],
				"metallicFactor":0,
				"roughnessFactor":0.5
			}
		},
		{
			"doubleSided":true,
			"name":"Material.002",
			"pbrMetallicRoughness":{
				"baseColorFactor":[
					0.8000000715255737,
					0.3269389867782593,
					0.6442023515701294,
					1
				],
				"metallicFactor":0,
				"roughnessFactor":0.5
			}
		},
		{
			"doubleSided":true,
			"name":"\u30de\u30c6\u30ea\u30a2\u30eb",
			"pbrMetallicRoughness":{
				"baseColorFactor":[
					0.018849309533834457,
					0.018849309533834457,
					0.018849309533834457,
					1
				],
				"metallicFactor":0,
				"roughnessFactor":0.5
			}
		}
	],
	"meshes":[
		{
			"name":"Cube",
			"primitives":[
				{
					"attributes":{
						"POSITION":0,
						"TEXCOORD_0":1,
						"NORMAL":2,
						"TANGENT":3
					},
					"indices":4,
					"material":0
				}
			]
		},
		{
			"name":"Cube.001",
			"primitives":[
				{
					"attributes":{
						"POSITION":5,
						"TEXCOORD_0":6,
						"NORMAL":7,
						"TANGENT":8
					},
					"indices":9,
					"material":0
				}
			]
		},
		{
			"name":"Cube.002",
			"primitives":[
				{
					"attributes":{
						"POSITION":10,
						"TEXCOORD_0":11,
						"NORMAL":12,
						"TANGENT":13
					},
					"indices":14,
					"material":1
				}
			]
		},
		{
			"name":"\u7acb\u65b9\u4f53",
			"primitives":[
				{
					"attributes":{
						"POSITION":15,
						"TEXCOORD_0":16,
						"NORMAL":17,
						"TANGENT":18
					},
					"indices":19,
					"material":2
				}
			]
		},
		{
			"name":"\u7acb\u65b9\u4f53.001",
			"primitives":[
				{
					"attributes":{
						"POSITION":20,
						"TEXCOORD_0":21,
						"NORMAL":22,
						"TANGENT":23
					},
					"indices":24,
					"material":2
				}
			]
		},
		{
			"name":"\u7acb\u65b9\u4f53.002",
			"primitives":[
				{
					"attributes":{
						"POSITION":25,
						"TEXCOORD_0":26,
						"NORMAL":27,
						"TANGENT":28
					},
					"indices":24
				}
			]
		},
		{
			"name":"\u7acb\u65b9\u4f53.003",
			"primitives":[
				{
					"attributes":{
						"POSITION":29,
						"TEXCOORD_0":30,
						"NORMAL":31,
						"TANGENT":32
					},
					"indices":24
				}
			]
		},
		{
			"name":"\u7acb\u65b9\u4f53.004",
			"primitives":[
				{
					"attributes":{
						"POSITION":33,
						"TEXCOORD_0":34,
						"NORMAL":35,
						"TANGENT":36
					},
					"indices":37,
					"material":2
				}
			]
		},
		{
			"name":"\u7acb\u65b9\u4f53.005",
			"primitives":[
				{
					"attributes":{
						"POSITION":38,
						"TEXCOORD_0":39,
						"NORMAL":40,
						"TANGENT":41
					},
					"indices":42,
					"material":2
				}
			]
		}
	],
	"accessors":[
		{
			"bufferView":0,
			"componentType":5126,
			"count":6255,
			"max":[
				1.236440896987915,
				0.9443894028663635,
				0.8015923500061035
			],
			"min":[
				-1.236440896987915,
				-1.2110464572906494,
				-2.241687297821045
			],
			"type":"VEC3"
		},
		{
			"bufferView":1,
			"componentType":5126,
			"count":6255,
			"type":"VEC2"
		},
		{
			"bufferView":2,
			"componentType":5126,
			"count":6255,
			"type":"VEC3"
		},
		{
			"bufferView":3,
			"componentType":5126,
			"count":6255,
			"type":"VEC4"
		},
		{
			"bufferView":4,
			"componentType":5123,
			"count":24480,
			"type":"SCALAR"
		},
		{
			"bufferView":5,
			"componentType":5126,
			"count":3811,
			"max":[
				0.8037859797477722,
				1.1626538038253784,
				0.8015923500061035
			],
			"min":[
				-0.8037859797477722,
				-0.7535115480422974,
				-0.8015923500061035
			],
			"type":"VEC3"
		},
		{
			"bufferView":6,
			"componentType":5126,
			"count":3811,
			"type":"VEC2"
		},
		{
			"bufferView":7,
			"componentType":5126,
			"count":3811,
			"type":"VEC3"
		},
		{
			"bufferView":8,
			"componentType":5126,
			"count":3811,
			"type":"VEC4"
		},
		{
			"bufferView":9,
			"componentType":5123,
			"count":16896,
			"type":"SCALAR"
		},
		{
			"bufferView":10,
			"componentType":5126,
			"count":909,
			"max":[
				0.6837289333343506,
				1.021682858467102,
				0.2058558613061905
			],
			"min":[
				-0.6837288737297058,
				0.550518810749054,
				0.004761485382914543
			],
			"type":"VEC3"
		},
		{
			"bufferView":11,
			"componentType":5126,
			"count":909,
			"type":"VEC2"
		},
		{
			"bufferView":12,
			"componentType":5126,
			"count":909,
			"type":"VEC3"
		},
		{
			"bufferView":13,
			"componentType":5126,
			"count":909,
			"type":"VEC4"
		},
		{
			"bufferView":14,
			"componentType":5123,
			"count":3072,
			"type":"SCALAR"
		},
		{
			"bufferView":15,
			"componentType":5126,
			"count":250,
			"max":[
				0.8395062685012817,
				0.8395062685012817,
				0.8395062685012817
			],
			"min":[
				-4.971604824066162,
				-0.8395062685012817,
				-0.8395071029663086
			],
			"type":"VEC3"
		},
		{
			"bufferView":16,
			"componentType":5126,
			"count":250,
			"type":"VEC2"
		},
		{
			"bufferView":17,
			"componentType":5126,
			"count":250,
			"type":"VEC3"
		},
		{
			"bufferView":18,
			"componentType":5126,
			"count":250,
			"type":"VEC4"
		},
		{
			"bufferView":19,
			"componentType":5123,
			"count":1152,
			"type":"SCALAR"
		},
		{
			"bufferView":20,
			"componentType":5126,
			"count":125,
			"max":[
				0.6687078475952148,
				0.8817765116691589,
				0.6687078475952148
			],
			"min":[
				-0.6687078475952148,
				-0.35502445697784424,
				-0.6687078475952148
			],
			"type":"VEC3"
		},
		{
			"bufferView":21,
			"componentType":5126,
			"count":125,
			"type":"VEC2"
		},
		{
			"bufferView":22,
			"componentType":5126,
			"count":125,
			"type":"VEC3"
		},
		{
			"bufferView":23,
			"componentType":5126,
			"count":125,
			"type":"VEC4"
		},
		{
			"bufferView":24,
			"componentType":5123,
			"count":576,
			"type":"SCALAR"
		},
		{
			"bufferView":25,
			"componentType":5126,
			"count":125,
			"max":[
				0.8395062685012817,
				0.8395062685012817,
				0.8395062685012817
			],
			"min":[
				-0.8395062685012817,
				-0.8395062685012817,
				-0.8395062685012817
			],
			"type":"VEC3"
		},
		{
			"bufferView":26,
			"componentType":5126,
			"count":125,
			"type":"VEC2"
		},
		{
			"bufferView":27,
			"componentType":5126,
			"count":125,
			"type":"VEC3"
		},
		{
			"bufferView":28,
			"componentType":5126,
			"count":125,
			"type":"VEC4"
		},
		{
			"bufferView":29,
			"componentType":5126,
			"count":125,
			"max":[
				0.8395062685012817,
				0.8395062685012817,
				0.8395062685012817
			],
			"min":[
				-0.8395062685012817,
				-0.8395062685012817,
				-0.8395062685012817
			],
			"type":"VEC3"
		},
		{
			"bufferView":30,
			"componentType":5126,
			"count":125,
			"type":"VEC2"
		},
		{
			"bufferView":31,
			"componentType":5126,
			"count":125,
			"type":"VEC3"
		},
		{
			"bufferView":32,
			"componentType":5126,
			"count":125,
			"type":"VEC4"
		},
		{
			"bufferView":33,
			"componentType":5126,
			"count":640,
			"max":[
				4.4827094078063965,
				0.8519026637077332,
				0.6976842880249023
			],
			"min":[
				-4.379896640777588,
				-2.0164830684661865,
				-0.6845132112503052
			],
			"type":"VEC3"
		},
		{
			"bufferView":34,
			"componentType":5126,
			"count":640,
			"type":"VEC2"
		},
		{
			"bufferView":35,
			"componentType":5126,
			"count":640,
			"type":"VEC3"
		},
		{
			"bufferView":36,
			"componentType":5126,
			"count":640,
			"type":"VEC4"
		},
		{
			"bufferView":37,
			"componentType":5123,
			"count":2688,
			"type":"SCALAR"
		},
		{
			"bufferView":38,
			"componentType":5126,
			"count":2073,
			"max":[
				19.57733726501465,
				1.6541107892990112,
				-0.9210710525512695
			],
			"min":[
				-15.194599151611328,
				-5.933915615081787,
				-4.205418586730957
			],
			"type":"VEC3"
		},
		{
			"bufferView":39,
			"componentType":5126,
			"count":2073,
			"type":"VEC2"
		},
		{
			"bufferView":40,
			"componentType":5126,
			"count":2073,
			"type":"VEC3"
		},
		{
			"bufferView":41,
			"componentType":5126,
			"count":2073,
			"type":"VEC4"
		},
		{
			"bufferView":42,
			"componentType":5123,
			"count":8064,
			"type":"SCALAR"
		}
	],
	"bufferViews":[
		{
			"buffer":0,
			"byteLength":75060,
			"byteOffset":0,
			"target":34962
		},
		{
			"buffer":0,
			"byteLength":50040,
			"byteOffset":75060,
			"target":34962
		},
		{
			"buffer":0,
			"byteLength":75060,
			"byteOffset":125100,
			"target":34962
		},
		{
			"buffer":0,
			"byteLength":100080,
			"byteOffset":200160,
			"target":34962
		},
		{
			"buffer":0,
			"byteLength":48960,
			"byteOffset":300240,
			"target":34963
		},
		{
			"buffer":0,
			"byteLength":45732,
			"byteOffset":349200,
			"target":34962
		},
		{
			"buffer":0,
			"byteLength":30488,
			"byteOffset":394932,
			"target":34962
		},
		{
			"buffer":0,
			"byteLength":45732,
			"byteOffset":425420,
			"target":34962
		},
		{
			"buffer":0,
			"byteLength":60976,
			"byteOffset":471152,
			"target":34962
		},
		{
			"buffer":0,
			"byteLength":33792,
			"byteOffset":532128,
			"target":34963
		},
		{
			"buffer":0,
			"byteLength":10908,
			"byteOffset":565920,
			"target":34962
		},
		{
			"buffer":0,
			"byteLength":7272,
			"byteOffset":576828,
			"target":34962
		},
		{
			"buffer":0,
			"byteLength":10908,
			"byteOffset":584100,
			"target":34962
		},
		{
			"buffer":0,
			"byteLength":14544,
			"byteOffset":595008,
			"target":34962
		},
		{
			"buffer":0,
			"byteLength":6144,
			"byteOffset":609552,
			"target":34963
		},
		{
			"buffer":0,
			"byteLength":3000,
			"byteOffset":615696,
			"target":34962
		},
		{
			"buffer":0,
			"byteLength":2000,
			"byteOffset":618696,
			"target":34962
		},
		{
			"buffer":0,
			"byteLength":3000,
			"byteOffset":620696,
			"target":34962
		},
		{
			"buffer":0,
			"byteLength":4000,
			"byteOffset":623696,
			"target":34962
		},
		{
			"buffer":0,
			"byteLength":2304,
			"byteOffset":627696,
			"target":34963
		},
		{
			"buffer":0,
			"byteLength":1500,
			"byteOffset":630000,
			"target":34962
		},
		{
			"buffer":0,
			"byteLength":1000,
			"byteOffset":631500,
			"target":34962
		},
		{
			"buffer":0,
			"byteLength":1500,
			"byteOffset":632500,
			"target":34962
		},
		{
			"buffer":0,
			"byteLength":2000,
			"byteOffset":634000,
			"target":34962
		},
		{
			"buffer":0,
			"byteLength":1152,
			"byteOffset":636000,
			"target":34963
		},
		{
			"buffer":0,
			"byteLength":1500,
			"byteOffset":637152,
			"target":34962
		},
		{
			"buffer":0,
			"byteLength":1000,
			"byteOffset":638652,
			"target":34962
		},
		{
			"buffer":0,
			"byteLength":1500,
			"byteOffset":639652,
			"target":34962
		},
		{
			"buffer":0,
			"byteLength":2000,
			"byteOffset":641152,
			"target":34962
		},
		{
			"buffer":0,
			"byteLength":1500,
			"byteOffset":643152,
			"target":34962
		},
		{
			"buffer":0,
			"byteLength":1000,
			"byteOffset":644652,
			"target":34962
		},
		{
			"buffer":0,
			"byteLength":1500,
			"byteOffset":645652,
			"target":34962
		},
		{
			"buffer":0,
			"byteLength":2000,
			"byteOffset":647152,
			"target":34962
		},
		{
			"buffer":0,
			"byteLength":7680,
			"byteOffset":649152,
			"target":34962
		},
		{
			"buffer":0,
			"byteLength":5120,
			"byteOffset":656832,
			"target":34962
		},
		{
			"buffer":0,
			"byteLength":7680,
			"byteOffset":661952,
			"target":34962
		},
		{
			"buffer":0,
			"byteLength":10240,
			"byteOffset":669632,
			"target":34962
		},
		{
			"buffer":0,
			"byteLength":5376,
			"byteOffset":679872,
			"target":34963
		},
		{
			"buffer":0,
			"byteLength":24876,
			"byteOffset":685248,
			"target":34962
		},
		{
			"buffer":0,
			"byteLength":16584,
			"byteOffset":710124,
			"target":34962
		},
		{
			"buffer":0,
			"byteLength":24876,
			"byteOffset":726708,
			"target":34962
		},
		{
			"buffer":0,
			"byteLength":33168,
			"byteOffset":751584,
			"target":34962
		},
		{
			"buffer":0,
			"byteLength":16128,
			"byteOffset":784752,
			"target":34963
		}
	],
	"buffers":[
		{
			"byteLength":800880,
			"uri":"data:application/octet-stream;base64,"
		}
	]
}
